{
  "accessors": [
    {
      "bufferView": 2,
      "componentType": 5126,
      "count": 4280,
      "max": [
        0.9686590433120728,
        0.9858474731445313,
        0.9711543917655945
      ],
      "min": [
        -0.9685879349708557,
        -0.9851531982421875,
        -0.9718778133392334
      ],
      "type": "VEC3"
    },
    {
      "bufferView": 2,
      "byteOffset": 51360,
      "componentType": 5126,
      "count": 4280,
      "max": [
        0.9949283003807068,
        0.999823808670044,
        0.999538779258728
      ],
      "min": [
        -0.9890719652175903,
        -0.999664843082428,
        -0.9725359082221985
      ],
      "type": "VEC3"
    },
    {
      "bufferView": 1,
      "componentType": 5126,
      "count": 4280,
      "max": [
        1.0,
        1.0
      ],
      "min": [
        0.0,
        0.0
      ],
      "type": "VEC2"
    },
    {
      "bufferView": 0,
      "componentType": 5125,
      "count": 6126,
      "type": "SCALAR"
    },
    {
      "bufferView": 2,
      "byteOffset": 102720,
      "componentType": 5126,
      "count": 2907,
      "max": [
        0.973659873008728,
        0.9568614959716797,
        0.9540534615516663
      ],
      "min": [
        -0.9708592295646667,
        -0.9845829010009766,
        -0.970944344997406
      ],
      "type": "VEC3"
    },
    {
      "bufferView": 2,
      "byteOffset": 137604,
      "componentType": 5126,
      "count": 2907,
      "max": [
        0.9969420433044434,
        0.9537777900695801,
        0.9971534013748169
      ],
      "min": [
        -0.979425311088562,
        -0.9996051788330078,
        -0.9942873120307922
      ],
      "type": "VEC3"
    },
    {
      "bufferView": 1,
      "byteOffset": 34240,
      "componentType": 5126,
      "count": 2907,
      "max": [
        1.0,
        0.9375000596046448
      ],
      "min": [
        0.0,
        0.0
      ],
      "type": "VEC2"
    },
    {
      "bufferView": 0,
      "byteOffset": 24504,
      "componentType": 5125,
      "count": 4227,
      "type": "SCALAR"
    },
    {
      "bufferView": 2,
      "byteOffset": 172488,
      "componentType": 5126,
      "count": 2992,
      "max": [
        0.9434991478919983,
        0.9873390197753906,
        0.9836960434913635
      ],
      "min": [
        -0.9766032695770264,
        -0.9844322204589844,
        -0.9849201440811157
      ],
      "type": "VEC3"
    },
    {
      "bufferView": 2,
      "byteOffset": 208392,
      "componentType": 5126,
      "count": 2992,
      "max": [
        0.9102418422698975,
        0.9996179342269897,
        0.9788563251495361
      ],
      "min": [
        -0.9995926022529602,
        -0.9996700286865234,
        -0.9809762239456177
      ],
      "type": "VEC3"
    },
    {
      "bufferView": 1,
      "byteOffset": 57496,
      "componentType": 5126,
      "count": 2992,
      "max": [
        1.0,
        1.0
      ],
      "min": [
        0.0,
        0.0
      ],
      "type": "VEC2"
    },
    {
      "bufferView": 0,
      "byteOffset": 41412,
      "componentType": 5125,
      "count": 4272,
      "type": "SCALAR"
    },
    {
      "bufferView": 2,
      "byteOffset": 244296,
      "componentType": 5126,
      "count": 5808,
      "max": [
        0.9942275285720825,
        0.8589401245117188,
        0.9944349527359009
      ],
      "min": [
        -0.9953463673591614,
        -0.7791061401367188,
        -0.994047999382019
      ],
      "type": "VEC3"
    },
    {
      "bufferView": 2,
      "byteOffset": 313992,
      "componentType": 5126,
      "count": 5808,
      "max": [
        0.9996303915977478,
        0.9721940159797668,
        0.9992088079452515
      ],
      "min": [
        -0.9996598362922668,
        -0.9998188018798828,
        -0.999805212020874
      ],
      "type": "VEC3"
    },
    {
      "bufferView": 1,
      "byteOffset": 81432,
      "componentType": 5126,
      "count": 5808,
      "max": [
        1.0,
        1.0
      ],
      "min": [
        0.0,
        0.5
      ],
      "type": "VEC2"
    },
    {
      "bufferView": 0,
      "byteOffset": 58500,
      "componentType": 5125,
      "count": 8712,
      "type": "SCALAR"
    },
    {
      "bufferView": 3,
      "componentType": 5126,
      "count": 1000,
      "max": [
        16.66666603088379
      ],
      "min": [
        0.01666666753590107
      ],
      "type": "SCALAR"
    },
    {
      "bufferView": 4,
      "componentType": 5126,
      "count": 1000,
      "max": [
        0.0,
        60.14839553833008,
        -0.0
      ],
      "min": [
        0.0,
        0.0,
        -0.0
      ],
      "type": "VEC3"
    },
    {
      "bufferView": 3,
      "byteOffset": 4000,
      "componentType": 5126,
      "count": 1000,
      "max": [
        16.66666603088379
      ],
      "min": [
        0.01666666753590107
      ],
      "type": "SCALAR"
    },
    {
      "bufferView": 4,
      "byteOffset": 12000,
      "componentType": 5126,
      "count": 1000,
      "max": [
        0.0,
        60.14848709106445,
        -0.0
      ],
      "min": [
        0.0,
        0.0,
        -0.0
      ],
      "type": "VEC3"
    }
  ],
  "animations": [
    {
      "channels": [
        {
          "sampler": 0,
          "target": {
            "node": 5,
            "path": "translation"
          }
        },
        {
          "sampler": 1,
          "target": {
            "node": 12,
            "path": "translation"
          }
        }
      ],
      "name": "Animation",
      "samplers": [
        {
          "input": 16,
          "interpolation": "LINEAR",
          "output": 17
        },
        {
          "input": 18,
          "interpolation": "LINEAR",
          "output": 19
        }
      ]
    }
  ],
  "asset": {
    "extras": {
      "author": "Emaxan (https://sketchfab.com/Emaxan)",
      "license": "CC-BY-4.0 (http://creativecommons.org/licenses/by/4.0/)",
      "source": "https://sketchfab.com/3d-models/rasengan-from-naruto-shippuden-2febf535515e41eb813d6faf54ca40e0",
      "title": "Rasengan from Naruto Shippuden"
    },
    "generator": "Sketchfab-14.87.0",
    "version": "2.0"
  },
  "bufferViews": [
    {
      "buffer": 0,
      "byteLength": 93348,
      "name": "floatBufferViews",
      "target": 34963
    },
    {
      "buffer": 0,
      "byteLength": 127896,
      "byteOffset": 93348,
      "byteStride": 8,
      "name": "floatBufferViews",
      "target": 34962
    },
    {
      "buffer": 0,
      "byteLength": 383688,
      "byteOffset": 221244,
      "byteStride": 12,
      "name": "floatBufferViews",
      "target": 34962
    },
    {
      "buffer": 0,
      "byteLength": 8000,
      "byteOffset": 604932,
      "name": "floatBufferViews"
    },
    {
      "buffer": 0,
      "byteLength": 24000,
      "byteOffset": 612932,
      "byteStride": 12,
      "name": "floatBufferViews"
    }
  ],
  "buffers": [
    {
      "byteLength": 636932,
      "uri": "scene.bin"
    }
  ],
  "materials": [
    {
      "doubleSided": true,
      "emissiveFactor": [
        0.0261186,
        0.222002,
        1.0
      ],
      "name": "Material.001"
    },
    {
      "doubleSided": true,
      "emissiveFactor": [
        0.190229,
        0.758454,
        1.0
      ],
      "name": "Material.003"
    },
    {
      "doubleSided": true,
      "emissiveFactor": [
        0.173233,
        0.758596,
        1.0
      ],
      "name": "Material.002"
    },
    {
      "doubleSided": true,
      "emissiveFactor": [
        0.106189,
        0.990018,
        1.0
      ],
      "name": "Material.004"
    }
  ],
  "meshes": [
    {
      "name": "Object_0",
      "primitives": [
        {
          "attributes": {
            "NORMAL": 1,
            "POSITION": 0,
            "TEXCOORD_0": 2
          },
          "indices": 3,
          "material": 0,
          "mode": 4
        }
      ]
    },
    {
      "name": "Object_1",
      "primitives": [
        {
          "attributes": {
            "NORMAL": 5,
            "POSITION": 4,
            "TEXCOORD_0": 6
          },
          "indices": 7,
          "material": 1,
          "mode": 4
        }
      ]
    },
    {
      "name": "Object_2",
      "primitives": [
        {
          "attributes": {
            "NORMAL": 9,
            "POSITION": 8,
            "TEXCOORD_0": 10
          },
          "indices": 11,
          "material": 2,
          "mode": 4
        }
      ]
    },
    {
      "name": "Object_3",
      "primitives": [
        {
          "attributes": {
            "NORMAL": 13,
            "POSITION": 12,
            "TEXCOORD_0": 14
          },
          "indices": 15,
          "material": 3,
          "mode": 4
        }
      ]
    }
  ],
  "nodes": [
    {
      "children": [
        1
      ],
      "matrix": [
        1.0,
        0.0,
        0.0,
        0.0,
        0.0,
        2.220446049250313e-16,
        -1.0,
        0.0,
        0.0,
        1.0,
        2.220446049250313e-16,
        0.0,
        0.0,
        0.0,
        0.0,
        1.0
      ],
      "name": "Sketchfab_model"
    },
    {
      "children": [
        2
      ],
      "name": "root"
    },
    {
      "children": [
        3,
        5,
        6,
        8,
        10,
        12
      ],
      "matrix": [
        1.0,
        0.0,
        0.0,
        0.0,
        0.0,
        2.220446049250313e-16,
        1.0,
        0.0,
        0.0,
        -1.0,
        2.220446049250313e-16,
        0.0,
        0.0,
        0.0,
        0.0,
        1.0
      ],
      "name": "GLTF_SceneRootNode"
    },
    {
      "children": [
        4
      ],
      "name": "Sphere_2"
    },
    {
      "mesh": 0,
      "name": "Object_4"
    },
    {
      "name": "rasengan core empty_3",
      "scale": [
        1.430651068687439,
        1.430651068687439,
        1.430651068687439
      ]
    },
    {
      "children": [
        7
      ],
      "matrix": [
        0.9126721024513245,
        0.0,
        0.0,
        0.0,
        0.0,
        0.9126721024513245,
        0.0,
        0.0,
        0.0,
        0.0,
        0.9126721024513245,
        0.0,
        0.0,
        0.0,
        0.0,
        1.0
      ],
      "name": "Sphere.001_4"
    },
    {
      "mesh": 1,
      "name": "Object_7"
    },
    {
      "children": [
        9
      ],
      "matrix": [
        0.653251588344574,
        0.0,
        0.0,
        0.0,
        0.0,
        0.653251588344574,
        0.0,
        0.0,
        0.0,
        0.0,
        0.653251588344574,
        0.0,
        0.0,
        0.0,
        0.0,
        1.0
      ],
      "name": "Sphere.002_5"
    },
    {
      "mesh": 2,
      "name": "Object_9"
    },
    {
      "children": [
        11
      ],
      "name": "Cylinder_6",
      "scale": [
        1.7092530727386475,
        0.36793845891952515,
        1.7092530727386475
      ]
    },
    {
      "mesh": 3,
      "name": "Object_11"
    },
    {
      "name": "rasengan around empty_7",
      "scale": [
        1.42241632938385,
        1.42241632938385,
        1.42241632938385
      ]
    }
  ],
  "scene": 0,
  "scenes": [
    {
      "name": "Sketchfab_Scene",
      "nodes": [
        0
      ]
    }
  ]
}
