{
  "accessors": [
    {
      "bufferView": 2,
      "componentType": 5126,
      "count": 65532,
      "max": [
        1.0099986791610718,
        0.9950777292251587,
        0.9949265122413635
      ],
      "min": [
        -0.9948762059211731,
        -0.9950703978538513,
        -0.9950085878372192
      ],
      "type": "VEC3"
    },
    {
      "bufferView": 2,
      "byteOffset": 786384,
      "componentType": 5126,
      "count": 65532,
      "max": [
        0.9999669790267944,
        0.9999840259552002,
        0.9999853372573853
      ],
      "min": [
        -0.9999300241470337,
        -0.9999343156814575,
        -0.9999783039093018
      ],
      "type": "VEC3"
    },
    {
      "bufferView": 1,
      "componentType": 5126,
      "count": 65532,
      "max": [
        1.0,
        1.0
      ],
      "min": [
        0.0,
        0.0
      ],
      "type": "VEC2"
    },
    {
      "bufferView": 0,
      "componentType": 5125,
      "count": 273120,
      "type": "SCALAR"
    },
    {
      "bufferView": 2,
      "byteOffset": 1572768,
      "componentType": 5126,
      "count": 65532,
      "max": [
        1.0084693431854248,
        1.0087045431137085,
        1.008548617362976
      ],
      "min": [
        -1.0085489749908447,
        -1.0087004899978638,
        -1.0085463523864746
      ],
      "type": "VEC3"
    },
    {
      "bufferView": 2,
      "byteOffset": 2359152,
      "componentType": 5126,
      "count": 65532,
      "max": [
        0.9999748468399048,
        0.9959752559661865,
        0.9999630451202393
      ],
      "min": [
        -0.9999493360519409,
        -0.9962005019187927,
        -0.9999816417694092
      ],
      "type": "VEC3"
    },
    {
      "bufferView": 1,
      "byteOffset": 524256,
      "componentType": 5126,
      "count": 65532,
      "max": [
        1.0,
        1.0
      ],
      "min": [
        0.00010000500333262607,
        0.0
      ],
      "type": "VEC2"
    },
    {
      "bufferView": 0,
      "byteOffset": 1092480,
      "componentType": 5125,
      "count": 273120,
      "type": "SCALAR"
    },
    {
      "bufferView": 2,
      "byteOffset": 3145536,
      "componentType": 5126,
      "count": 65532,
      "max": [
        1.0099005699157715,
        1.0099995136260986,
        1.0099607706069946
      ],
      "min": [
        -1.0099064111709595,
        -1.0099996328353882,
        -1.0097274780273438
      ],
      "type": "VEC3"
    },
    {
      "bufferView": 2,
      "byteOffset": 3931920,
      "componentType": 5126,
      "count": 65532,
      "max": [
        0.999903678894043,
        0.9999788999557495,
        0.9999735355377197
      ],
      "min": [
        -0.9999744892120361,
        -0.9999444484710693,
        -0.999987006187439
      ],
      "type": "VEC3"
    },
    {
      "bufferView": 1,
      "byteOffset": 1048512,
      "componentType": 5126,
      "count": 65532,
      "max": [
        1.0,
        0.5
      ],
      "min": [
        0.00020001000666525215,
        0.0
      ],
      "type": "VEC2"
    },
    {
      "bufferView": 0,
      "byteOffset": 2184960,
      "componentType": 5125,
      "count": 273177,
      "type": "SCALAR"
    },
    {
      "bufferView": 2,
      "byteOffset": 4718304,
      "componentType": 5126,
      "count": 65532,
      "max": [
        1.004853367805481,
        1.004921793937683,
        1.0097488164901733
      ],
      "min": [
        -1.0049371719360352,
        -1.0049294233322144,
        -1.0044564008712769
      ],
      "type": "VEC3"
    },
    {
      "bufferView": 2,
      "byteOffset": 5504688,
      "componentType": 5126,
      "count": 65532,
      "max": [
        0.9999793767929077,
        0.9956187605857849,
        0.9999918937683105
      ],
      "min": [
        -0.9999771118164063,
        -0.9958440065383911,
        -0.9999570846557617
      ],
      "type": "VEC3"
    },
    {
      "bufferView": 1,
      "byteOffset": 1572768,
      "componentType": 5126,
      "count": 65532,
      "max": [
        1.0,
        0.5
      ],
      "min": [
        0.0003000150027219206,
        0.0
      ],
      "type": "VEC2"
    },
    {
      "bufferView": 0,
      "byteOffset": 3277668,
      "componentType": 5125,
      "count": 273192,
      "type": "SCALAR"
    },
    {
      "bufferView": 2,
      "byteOffset": 6291072,
      "componentType": 5126,
      "count": 65532,
      "max": [
        1.0086431503295898,
        1.0087047815322876,
        1.008700966835022
      ],
      "min": [
        -1.008650779724121,
        -1.0087002515792847,
        -1.0071849822998047
      ],
      "type": "VEC3"
    },
    {
      "bufferView": 2,
      "byteOffset": 7077456,
      "componentType": 5126,
      "count": 65532,
      "max": [
        0.999903678894043,
        0.9812679290771484,
        0.9999760389328003
      ],
      "min": [
        -0.9996248483657837,
        -0.9819329977035522,
        -0.999987006187439
      ],
      "type": "VEC3"
    },
    {
      "bufferView": 1,
      "byteOffset": 2097024,
      "componentType": 5126,
      "count": 65532,
      "max": [
        1.0,
        0.8333333134651184
      ],
      "min": [
        0.00010000500333262607,
        0.1666666716337204
      ],
      "type": "VEC2"
    },
    {
      "bufferView": 0,
      "byteOffset": 4370436,
      "componentType": 5125,
      "count": 196572,
      "type": "SCALAR"
    },
    {
      "bufferView": 2,
      "byteOffset": 7863840,
      "componentType": 5126,
      "count": 50255,
      "max": [
        1.0085333585739136,
        1.0086148977279663,
        1.0085865259170532
      ],
      "min": [
        -1.0084091424942017,
        -1.008618950843811,
        -1.0065199136734009
      ],
      "type": "VEC3"
    },
    {
      "bufferView": 2,
      "byteOffset": 8466900,
      "componentType": 5126,
      "count": 50255,
      "max": [
        0.9990549087524414,
        0.9807661771774292,
        0.9999829530715942
      ],
      "min": [
        -0.9999300241470337,
        -0.9816307425498962,
        -0.9999786615371704
      ],
      "type": "VEC3"
    },
    {
      "bufferView": 1,
      "byteOffset": 2621280,
      "componentType": 5126,
      "count": 50255,
      "max": [
        0.7233861684799194,
        0.3333333432674408
      ],
      "min": [
        0.0003000150027219206,
        0.0
      ],
      "type": "VEC2"
    },
    {
      "bufferView": 0,
      "byteOffset": 5156724,
      "componentType": 5125,
      "count": 150747,
      "type": "SCALAR"
    }
  ],
  "asset": {
    "extras": {
      "author": "bjorn.mutzel (https://sketchfab.com/bjorn.mutzel)",
      "license": "CC-BY-4.0 (http://creativecommons.org/licenses/by/4.0/)",
      "source": "https://sketchfab.com/3d-models/temari-ball-2-9b7249c963bc492ab267ee8d715b478c",
      "title": "Temari ball #2"
    },
    "generator": "Sketchfab-12.68.0",
    "version": "2.0"
  },
  "bufferViews": [
    {
      "buffer": 0,
      "byteLength": 5759712,
      "name": "floatBufferViews",
      "target": 34963
    },
    {
      "buffer": 0,
      "byteLength": 3023320,
      "byteOffset": 5759712,
      "byteStride": 8,
      "name": "floatBufferViews",
      "target": 34962
    },
    {
      "buffer": 0,
      "byteLength": 9069960,
      "byteOffset": 8783032,
      "byteStride": 12,
      "name": "floatBufferViews",
      "target": 34962
    }
  ],
  "buffers": [
    {
      "byteLength": 17852992,
      "uri": "scene.bin"
    }
  ],
  "extensionsRequired": [
    "KHR_materials_pbrSpecularGlossiness"
  ],
  "extensionsUsed": [
    "KHR_materials_pbrSpecularGlossiness"
  ],
  "materials": [
    {
      "doubleSided": true,
      "extensions": {
        "KHR_materials_pbrSpecularGlossiness": {
          "diffuseFactor": [
            0.5417252600471356,
            0.5417252600471356,
            0.5417252600471356,
            1.0
          ],
          "glossinessFactor": 0.0,
          "specularFactor": [
            0.2226422555124753,
            0.2226422555124753,
            0.2226422555124753
          ]
        }
      },
      "name": "Material.001"
    }
  ],
  "meshes": [
    {
      "name": "Shape_IndexedLineSet_Material.001_0",
      "primitives": [
        {
          "attributes": {
            "NORMAL": 1,
            "POSITION": 0,
            "TEXCOORD_0": 2
          },
          "indices": 3,
          "material": 0,
          "mode": 4
        }
      ]
    },
    {
      "name": "Shape_IndexedLineSet_Material.001_0",
      "primitives": [
        {
          "attributes": {
            "NORMAL": 5,
            "POSITION": 4,
            "TEXCOORD_0": 6
          },
          "indices": 7,
          "material": 0,
          "mode": 4
        }
      ]
    },
    {
      "name": "Shape_IndexedLineSet_Material.001_0",
      "primitives": [
        {
          "attributes": {
            "NORMAL": 9,
            "POSITION": 8,
            "TEXCOORD_0": 10
          },
          "indices": 11,
          "material": 0,
          "mode": 4
        }
      ]
    },
    {
      "name": "Shape_IndexedLineSet_Material.001_0",
      "primitives": [
        {
          "attributes": {
            "NORMAL": 13,
            "POSITION": 12,
            "TEXCOORD_0": 14
          },
          "indices": 15,
          "material": 0,
          "mode": 4
        }
      ]
    },
    {
      "name": "Shape_IndexedLineSet_Material.001_0",
      "primitives": [
        {
          "attributes": {
            "NORMAL": 17,
            "POSITION": 16,
            "TEXCOORD_0": 18
          },
          "indices": 19,
          "material": 0,
          "mode": 4
        }
      ]
    },
    {
      "name": "Shape_IndexedLineSet_Material.001_0",
      "primitives": [
        {
          "attributes": {
            "NORMAL": 21,
            "POSITION": 20,
            "TEXCOORD_0": 22
          },
          "indices": 23,
          "material": 0,
          "mode": 4
        }
      ]
    }
  ],
  "nodes": [
    {
      "children": [
        1
      ],
      "matrix": [
        1.0,
        0.0,
        0.0,
        0.0,
        0.0,
        2.220446049250313e-16,
        -1.0,
        0.0,
        0.0,
        1.0,
        2.220446049250313e-16,
        0.0,
        0.0,
        0.0,
        0.0,
        1.0
      ],
      "name": "Sketchfab_model"
    },
    {
      "children": [
        2
      ],
      "matrix": [
        0.009999999776482582,
        0.0,
        0.0,
        0.0,
        0.0,
        0.0,
        0.009999999776482582,
        0.0,
        0.0,
        -0.009999999776482582,
        0.0,
        0.0,
        0.0,
        0.0,
        0.0,
        1.0
      ],
      "name": "7e57aa2a416a4cf9b3137cdaae8d6055.fbx"
    },
    {
      "children": [
        3,
        6,
        8
      ],
      "name": "RootNode"
    },
    {
      "children": [
        4
      ],
      "matrix": [
        -29.086466012969506,
        -5.518904334943286,
        -95.51712263095594,
        0.0,
        56.63931168888501,
        79.46723477095061,
        -21.83911557888623,
        0.0,
        77.110090100962,
        -60.45246312143063,
        -19.988339280030054,
        0.0,
        407.6245422363281,
        590.38623046875,
        -100.54539489746094,
        1.0
      ],
      "name": "Light"
    },
    {
      "children": [
        5
      ],
      "matrix": [
        1.0,
        0.0,
        0.0,
        0.0,
        0.0,
        2.220446049250313e-16,
        1.0,
        0.0,
        0.0,
        -1.0,
        2.220446049250313e-16,
        0.0,
        0.0,
        0.0,
        0.0,
        1.0
      ],
      "name": "Object_4"
    },
    {
      "name": "Object_5"
    },
    {
      "children": [
        7
      ],
      "matrix": [
        -65.1558127516791,
        -44.52713915455176,
        -61.417049289096546,
        0.0,
        -32.401349332924404,
        89.53957282709818,
        -30.5420854760369,
        0.0,
        68.59207001076241,
        8.666908837178815e-06,
        -72.76761921184274,
        0.0,
        735.88916015625,
        495.8309326171875,
        692.5791015625,
        1.0
      ],
      "name": "Camera"
    },
    {
      "name": "Object_7"
    },
    {
      "children": [
        9,
        10,
        11,
        12,
        13,
        14
      ],
      "matrix": [
        -99.99999999999889,
        -1.2246467991473396e-14,
        1.5099579909783709e-05,
        0.0,
        -6.722700702438214e-13,
        99.9999999999999,
        -4.37113884092021e-06,
        0.0,
        -1.5099579909783694e-05,
        -4.371138840920261e-06,
        -99.9999999999988,
        0.0,
        0.0,
        0.0,
        0.0,
        1.0
      ],
      "name": "Shape_IndexedLineSet"
    },
    {
      "mesh": 0,
      "name": "Shape_IndexedLineSet_Material.001_0"
    },
    {
      "mesh": 1,
      "name": "Shape_IndexedLineSet_Material.001_0"
    },
    {
      "mesh": 2,
      "name": "Shape_IndexedLineSet_Material.001_0"
    },
    {
      "mesh": 3,
      "name": "Shape_IndexedLineSet_Material.001_0"
    },
    {
      "mesh": 4,
      "name": "Shape_IndexedLineSet_Material.001_0"
    },
    {
      "mesh": 5,
      "name": "Shape_IndexedLineSet_Material.001_0"
    }
  ],
  "scene": 0,
  "scenes": [
    {
      "name": "Sketchfab_Scene",
      "nodes": [
        0
      ]
    }
  ]
}
